M48
; DRILL file {KiCad 9.0.7} date 2026-05-01T17:34:25-0600
; FORMAT={-:-/ absolute / metric / decimal}
; #@! TF.CreationDate,2026-05-01T17:34:25-06:00
; #@! TF.GenerationSoftware,Kicad,Pcbnew,9.0.7
; #@! TF.FileFunction,Plated,1,2,PTH
FMAT,2
METRIC
; #@! TA.AperFunction,Plated,PTH,ViaDrill
T1C0.300
; #@! TA.AperFunction,Plated,PTH,ComponentDrill
T2C0.500
; #@! TA.AperFunction,Plated,PTH,ComponentDrill
T3C1.000
%
G90
G05
T1
X66.0Y-62.5
X71.0Y-72.0
X72.5Y-73.5
X74.5Y-63.5
X78.0Y-72.601
X81.5Y-81.0
X82.5Y-74.5
X82.52Y-72.48
X86.0Y-65.5
X88.5Y-64.5
X90.5Y-72.0
X90.5Y-74.5
X91.0Y-52.0
X91.5Y-66.0
X93.5Y-68.0
X94.5Y-62.0
X95.0Y-70.5
X96.5Y-66.5
X97.5Y-63.5
X97.5Y-68.0
X101.0Y-66.5
X102.0Y-64.0
X105.0Y-64.412
X110.0Y-65.0
X111.5Y-65.0
X113.0Y-61.5
T3
X116.5Y-53.88
X116.5Y-56.42
X116.5Y-58.96
X116.5Y-61.5
T2
G00X61.055Y-80.35
M15
G01X61.055Y-79.55
M16
G05
G00X65.1Y-83.0
M15
G01X65.9Y-83.0
M16
G05
G00X69.945Y-80.35
M15
G01X69.945Y-79.55
M16
G05
G00X87.55Y-55.5
M15
G01X88.25Y-55.5
M16
G05
G00X90.15Y-57.65
M15
G01X91.25Y-57.65
M16
G05
G00X93.15Y-55.5
M15
G01X93.85Y-55.5
M16
G05
M30
