%TF.GenerationSoftware,KiCad,Pcbnew,9.0.7*%
%TF.CreationDate,2026-05-01T17:34:28-06:00*%
%TF.ProjectId,PhilsLab,5068696c-734c-4616-922e-6b696361645f,rev?*%
%TF.SameCoordinates,Original*%
%TF.FileFunction,Copper,L2,Bot*%
%TF.FilePolarity,Positive*%
%FSLAX46Y46*%
G04 Gerber Fmt 4.6, Leading zero omitted, Abs format (unit mm)*
G04 Created by KiCad (PCBNEW 9.0.7) date 2026-05-01 17:34:28*
%MOMM*%
%LPD*%
G01*
G04 APERTURE LIST*
%TA.AperFunction,ComponentPad*%
%ADD10O,1.400000X1.900000*%
%TD*%
%TA.AperFunction,ComponentPad*%
%ADD11O,1.900000X1.400000*%
%TD*%
%TA.AperFunction,ComponentPad*%
%ADD12R,1.700000X1.700000*%
%TD*%
%TA.AperFunction,ComponentPad*%
%ADD13C,1.700000*%
%TD*%
%TA.AperFunction,HeatsinkPad*%
%ADD14O,1.800000X1.100000*%
%TD*%
%TA.AperFunction,HeatsinkPad*%
%ADD15O,2.200000X1.100000*%
%TD*%
%TA.AperFunction,ViaPad*%
%ADD16C,0.600000*%
%TD*%
%TA.AperFunction,Conductor*%
%ADD17C,0.200000*%
%TD*%
G04 APERTURE END LIST*
D10*
%TO.P,SW1,1,A*%
%TO.N,+3.3V*%
X61055000Y-79950000D03*
D11*
X65500000Y-83000000D03*
D10*
X69945000Y-79950000D03*
%TD*%
D12*
%TO.P,J2,1,Pin_1*%
%TO.N,+3.3V*%
X116500000Y-61500000D03*
D13*
%TO.P,J2,2,Pin_2*%
%TO.N,Net-(J2-Pin_2)*%
X116500000Y-58960000D03*
%TO.P,J2,3,Pin_3*%
%TO.N,Net-(J2-Pin_3)*%
X116500000Y-56420000D03*
%TO.P,J2,4,Pin_4*%
%TO.N,GND*%
X116500000Y-53880000D03*
%TD*%
D14*
%TO.P,J1,6,Shield*%
%TO.N,unconnected-(J1-Shield-Pad6)*%
X87900000Y-55500000D03*
D15*
%TO.N,unconnected-(J1-Shield-Pad6)_2*%
X90700000Y-57650000D03*
D14*
%TO.N,unconnected-(J1-Shield-Pad6)_1*%
X93500000Y-55500000D03*
%TD*%
D16*
%TO.N,VBUS*%
X88500000Y-64500000D03*
X86000000Y-65500000D03*
%TO.N,+3.3VA*%
X66000000Y-62500000D03*
%TO.N,Net-(U1-PD1)*%
X96500000Y-66500000D03*
X74500000Y-63500000D03*
%TO.N,Net-(J1-D+)*%
X91000000Y-52000000D03*
X110000000Y-65000000D03*
%TO.N,Net-(J1-D-)*%
X94500000Y-62000000D03*
X105000000Y-64412500D03*
%TO.N,+3.3V*%
X113000000Y-61500000D03*
X111500000Y-65000000D03*
%TO.N,Net-(U1-PD1)*%
X102000000Y-64000000D03*
X101000000Y-66500000D03*
%TO.N,+3.3VA*%
X97500000Y-68000000D03*
X97500000Y-63500000D03*
%TO.N,Net-(U1-PD0)*%
X91500000Y-66000000D03*
X93500000Y-68000000D03*
X95000000Y-70500000D03*
%TO.N,+3.3V*%
X90500000Y-72000000D03*
X90500000Y-74500000D03*
%TO.N,GND*%
X82500000Y-74500000D03*
X82520000Y-72480000D03*
%TO.N,VBUS*%
X78000000Y-72601000D03*
X81500000Y-81000000D03*
%TO.N,Net-(U1-NRST)*%
X72500000Y-73500000D03*
X71000000Y-72000000D03*
%TD*%
D17*
%TO.N,VBUS*%
X87500000Y-65500000D02*
X86000000Y-65500000D01*
X88500000Y-64500000D02*
X87500000Y-65500000D01*
%TO.N,+3.3VA*%
X96899000Y-62899000D02*
X66399000Y-62899000D01*
X66399000Y-62899000D02*
X66000000Y-62500000D01*
X97500000Y-63500000D02*
X96899000Y-62899000D01*
%TO.N,Net-(U1-PD1)*%
X93500000Y-63500000D02*
X96500000Y-66500000D01*
X74500000Y-63500000D02*
X93500000Y-63500000D01*
%TO.N,Net-(J1-D+)*%
X97000000Y-52000000D02*
X91000000Y-52000000D01*
X110000000Y-65000000D02*
X97000000Y-52000000D01*
%TO.N,+3.3V*%
X102000000Y-74500000D02*
X90500000Y-74500000D01*
X111500000Y-65000000D02*
X102000000Y-74500000D01*
%TO.N,Net-(J1-D-)*%
X102587500Y-62000000D02*
X94500000Y-62000000D01*
X105000000Y-64412500D02*
X102587500Y-62000000D01*
%TO.N,+3.3V*%
X111500000Y-63000000D02*
X113000000Y-61500000D01*
X111500000Y-65000000D02*
X111500000Y-63000000D01*
%TO.N,Net-(U1-PD1)*%
X101000000Y-65000000D02*
X102000000Y-64000000D01*
X101000000Y-66500000D02*
X101000000Y-65000000D01*
%TO.N,+3.3VA*%
X97500000Y-67500000D02*
X97500000Y-68000000D01*
X97500000Y-63500000D02*
X97500000Y-67500000D01*
%TO.N,Net-(U1-PD0)*%
X93500000Y-68000000D02*
X91500000Y-66000000D01*
X95000000Y-69500000D02*
X93500000Y-68000000D01*
X95000000Y-70500000D02*
X95000000Y-69500000D01*
%TO.N,+3.3V*%
X90500000Y-74500000D02*
X90500000Y-72000000D01*
%TO.N,GND*%
X82520000Y-74480000D02*
X82500000Y-74500000D01*
X82520000Y-72480000D02*
X82520000Y-74480000D01*
%TO.N,VBUS*%
X78000000Y-73000000D02*
X78000000Y-72601000D01*
X78000000Y-77500000D02*
X78000000Y-73000000D01*
X81500000Y-81000000D02*
X78000000Y-77500000D01*
%TO.N,Net-(U1-NRST)*%
X71000000Y-72000000D02*
X72500000Y-73500000D01*
%TD*%
M02*
