%TF.GenerationSoftware,KiCad,Pcbnew,9.0.7*%
%TF.CreationDate,2026-05-01T17:34:28-06:00*%
%TF.ProjectId,PhilsLab,5068696c-734c-4616-922e-6b696361645f,rev?*%
%TF.SameCoordinates,Original*%
%TF.FileFunction,Copper,L1,Top*%
%TF.FilePolarity,Positive*%
%FSLAX46Y46*%
G04 Gerber Fmt 4.6, Leading zero omitted, Abs format (unit mm)*
G04 Created by KiCad (PCBNEW 9.0.7) date 2026-05-01 17:34:28*
%MOMM*%
%LPD*%
G01*
G04 APERTURE LIST*
G04 Aperture macros list*
%AMRoundRect*
0 Rectangle with rounded corners*
0 $1 Rounding radius*
0 $2 $3 $4 $5 $6 $7 $8 $9 X,Y pos of 4 corners*
0 Add a 4 corners polygon primitive as box body*
4,1,4,$2,$3,$4,$5,$6,$7,$8,$9,$2,$3,0*
0 Add four circle primitives for the rounded corners*
1,1,$1+$1,$2,$3*
1,1,$1+$1,$4,$5*
1,1,$1+$1,$6,$7*
1,1,$1+$1,$8,$9*
0 Add four rect primitives between the rounded corners*
20,1,$1+$1,$2,$3,$4,$5,0*
20,1,$1+$1,$4,$5,$6,$7,0*
20,1,$1+$1,$6,$7,$8,$9,0*
20,1,$1+$1,$8,$9,$2,$3,0*%
G04 Aperture macros list end*
%TA.AperFunction,SMDPad,CuDef*%
%ADD10RoundRect,0.249999X-0.650001X-0.450001X0.650001X-0.450001X0.650001X0.450001X-0.650001X0.450001X0*%
%TD*%
%TA.AperFunction,SMDPad,CuDef*%
%ADD11RoundRect,0.375000X-0.625000X-0.375000X0.625000X-0.375000X0.625000X0.375000X-0.625000X0.375000X0*%
%TD*%
%TA.AperFunction,SMDPad,CuDef*%
%ADD12RoundRect,0.500000X-0.500000X-1.400000X0.500000X-1.400000X0.500000X1.400000X-0.500000X1.400000X0*%
%TD*%
%TA.AperFunction,SMDPad,CuDef*%
%ADD13RoundRect,0.075000X-0.662500X-0.075000X0.662500X-0.075000X0.662500X0.075000X-0.662500X0.075000X0*%
%TD*%
%TA.AperFunction,SMDPad,CuDef*%
%ADD14RoundRect,0.075000X-0.075000X-0.662500X0.075000X-0.662500X0.075000X0.662500X-0.075000X0.662500X0*%
%TD*%
%TA.AperFunction,ComponentPad*%
%ADD15O,1.400000X1.900000*%
%TD*%
%TA.AperFunction,ComponentPad*%
%ADD16O,1.900000X1.400000*%
%TD*%
%TA.AperFunction,SMDPad,CuDef*%
%ADD17RoundRect,0.135000X-0.135000X-0.185000X0.135000X-0.185000X0.135000X0.185000X-0.135000X0.185000X0*%
%TD*%
%TA.AperFunction,ComponentPad*%
%ADD18R,1.700000X1.700000*%
%TD*%
%TA.AperFunction,ComponentPad*%
%ADD19C,1.700000*%
%TD*%
%TA.AperFunction,SMDPad,CuDef*%
%ADD20R,0.450000X1.500000*%
%TD*%
%TA.AperFunction,HeatsinkPad*%
%ADD21O,1.800000X1.100000*%
%TD*%
%TA.AperFunction,HeatsinkPad*%
%ADD22O,2.200000X1.100000*%
%TD*%
%TA.AperFunction,SMDPad,CuDef*%
%ADD23RoundRect,0.218750X-0.218750X-0.256250X0.218750X-0.256250X0.218750X0.256250X-0.218750X0.256250X0*%
%TD*%
%TA.AperFunction,SMDPad,CuDef*%
%ADD24RoundRect,0.250000X-0.375000X-0.625000X0.375000X-0.625000X0.375000X0.625000X-0.375000X0.625000X0*%
%TD*%
%TA.AperFunction,SMDPad,CuDef*%
%ADD25RoundRect,0.250000X-0.250000X-0.475000X0.250000X-0.475000X0.250000X0.475000X-0.250000X0.475000X0*%
%TD*%
%TA.AperFunction,SMDPad,CuDef*%
%ADD26RoundRect,0.250000X0.250000X0.475000X-0.250000X0.475000X-0.250000X-0.475000X0.250000X-0.475000X0*%
%TD*%
%TA.AperFunction,ViaPad*%
%ADD27C,0.600000*%
%TD*%
%TA.AperFunction,Conductor*%
%ADD28C,0.200000*%
%TD*%
G04 APERTURE END LIST*
D10*
%TO.P,Y1,1,1*%
%TO.N,Net-(U1-PD0)*%
X99300000Y-77200000D03*
%TO.P,Y1,2,G*%
%TO.N,GND*%
X103700000Y-77200000D03*
%TO.P,Y1,3,3*%
%TO.N,Net-(U1-PD1)*%
X103700000Y-74800000D03*
%TO.P,Y1,4,G*%
%TO.N,GND*%
X99300000Y-74800000D03*
%TD*%
D11*
%TO.P,U2,1,ADJ*%
%TO.N,GND*%
X83350000Y-75700000D03*
%TO.P,U2,2,VO*%
%TO.N,+3.3V*%
X83350000Y-78000000D03*
D12*
X89650000Y-78000000D03*
D11*
%TO.P,U2,3,VI*%
%TO.N,VBUS*%
X83350000Y-80300000D03*
%TD*%
D13*
%TO.P,U1,1,VBAT*%
%TO.N,+3.3V*%
X99587500Y-62412500D03*
%TO.P,U1,2,PC13*%
%TO.N,unconnected-(U1-PC13-Pad2)*%
X99587500Y-62912500D03*
%TO.P,U1,3,PC14*%
%TO.N,unconnected-(U1-PC14-Pad3)*%
X99587500Y-63412500D03*
%TO.P,U1,4,PC15*%
%TO.N,unconnected-(U1-PC15-Pad4)*%
X99587500Y-63912500D03*
%TO.P,U1,5,PD0*%
%TO.N,Net-(U1-PD0)*%
X99587500Y-64412500D03*
%TO.P,U1,6,PD1*%
%TO.N,Net-(U1-PD1)*%
X99587500Y-64912500D03*
%TO.P,U1,7,NRST*%
%TO.N,Net-(U1-NRST)*%
X99587500Y-65412500D03*
%TO.P,U1,8,VSSA*%
%TO.N,GND*%
X99587500Y-65912500D03*
%TO.P,U1,9,VDDA*%
%TO.N,+3.3VA*%
X99587500Y-66412500D03*
%TO.P,U1,10,PA0*%
%TO.N,unconnected-(U1-PA0-Pad10)*%
X99587500Y-66912500D03*
%TO.P,U1,11,PA1*%
%TO.N,unconnected-(U1-PA1-Pad11)*%
X99587500Y-67412500D03*
%TO.P,U1,12,PA2*%
%TO.N,unconnected-(U1-PA2-Pad12)*%
X99587500Y-67912500D03*
D14*
%TO.P,U1,13,PA3*%
%TO.N,unconnected-(U1-PA3-Pad13)*%
X101000000Y-69325000D03*
%TO.P,U1,14,PA4*%
%TO.N,unconnected-(U1-PA4-Pad14)*%
X101500000Y-69325000D03*
%TO.P,U1,15,PA5*%
%TO.N,unconnected-(U1-PA5-Pad15)*%
X102000000Y-69325000D03*
%TO.P,U1,16,PA6*%
%TO.N,unconnected-(U1-PA6-Pad16)*%
X102500000Y-69325000D03*
%TO.P,U1,17,PA7*%
%TO.N,unconnected-(U1-PA7-Pad17)*%
X103000000Y-69325000D03*
%TO.P,U1,18,PB0*%
%TO.N,unconnected-(U1-PB0-Pad18)*%
X103500000Y-69325000D03*
%TO.P,U1,19,PB1*%
%TO.N,unconnected-(U1-PB1-Pad19)*%
X104000000Y-69325000D03*
%TO.P,U1,20,PB2*%
%TO.N,unconnected-(U1-PB2-Pad20)*%
X104500000Y-69325000D03*
%TO.P,U1,21,PB10*%
%TO.N,unconnected-(U1-PB10-Pad21)*%
X105000000Y-69325000D03*
%TO.P,U1,22,PB11*%
%TO.N,unconnected-(U1-PB11-Pad22)*%
X105500000Y-69325000D03*
%TO.P,U1,23,VSS*%
%TO.N,GND*%
X106000000Y-69325000D03*
%TO.P,U1,24,VDD*%
%TO.N,+3.3V*%
X106500000Y-69325000D03*
D13*
%TO.P,U1,25,PB12*%
%TO.N,unconnected-(U1-PB12-Pad25)*%
X107912500Y-67912500D03*
%TO.P,U1,26,PB13*%
%TO.N,unconnected-(U1-PB13-Pad26)*%
X107912500Y-67412500D03*
%TO.P,U1,27,PB14*%
%TO.N,unconnected-(U1-PB14-Pad27)*%
X107912500Y-66912500D03*
%TO.P,U1,28,PB15*%
%TO.N,unconnected-(U1-PB15-Pad28)*%
X107912500Y-66412500D03*
%TO.P,U1,29,PA8*%
%TO.N,unconnected-(U1-PA8-Pad29)*%
X107912500Y-65912500D03*
%TO.P,U1,30,PA9*%
%TO.N,unconnected-(U1-PA9-Pad30)*%
X107912500Y-65412500D03*
%TO.P,U1,31,PA10*%
%TO.N,unconnected-(U1-PA10-Pad31)*%
X107912500Y-64912500D03*
%TO.P,U1,32,PA11*%
%TO.N,Net-(J1-D-)*%
X107912500Y-64412500D03*
%TO.P,U1,33,PA12*%
%TO.N,Net-(J1-D+)*%
X107912500Y-63912500D03*
%TO.P,U1,34,PA13*%
%TO.N,Net-(J2-Pin_2)*%
X107912500Y-63412500D03*
%TO.P,U1,35,VSS*%
%TO.N,GND*%
X107912500Y-62912500D03*
%TO.P,U1,36,VDD*%
%TO.N,+3.3V*%
X107912500Y-62412500D03*
D14*
%TO.P,U1,37,PA14*%
%TO.N,Net-(J2-Pin_3)*%
X106500000Y-61000000D03*
%TO.P,U1,38,PA15*%
%TO.N,unconnected-(U1-PA15-Pad38)*%
X106000000Y-61000000D03*
%TO.P,U1,39,PB3*%
%TO.N,unconnected-(U1-PB3-Pad39)*%
X105500000Y-61000000D03*
%TO.P,U1,40,PB4*%
%TO.N,unconnected-(U1-PB4-Pad40)*%
X105000000Y-61000000D03*
%TO.P,U1,41,PB5*%
%TO.N,unconnected-(U1-PB5-Pad41)*%
X104500000Y-61000000D03*
%TO.P,U1,42,PB6*%
%TO.N,unconnected-(U1-PB6-Pad42)*%
X104000000Y-61000000D03*
%TO.P,U1,43,PB7*%
%TO.N,unconnected-(U1-PB7-Pad43)*%
X103500000Y-61000000D03*
%TO.P,U1,44,BOOT0*%
%TO.N,Net-(U1-BOOT0)*%
X103000000Y-61000000D03*
%TO.P,U1,45,PB8*%
%TO.N,unconnected-(U1-PB8-Pad45)*%
X102500000Y-61000000D03*
%TO.P,U1,46,PB9*%
%TO.N,unconnected-(U1-PB9-Pad46)*%
X102000000Y-61000000D03*
%TO.P,U1,47,VSS*%
%TO.N,GND*%
X101500000Y-61000000D03*
%TO.P,U1,48,VDD*%
%TO.N,+3.3V*%
X101000000Y-61000000D03*
%TD*%
D15*
%TO.P,SW1,1,A*%
%TO.N,+3.3V*%
X61055000Y-79950000D03*
D16*
X65500000Y-83000000D03*
D15*
X69945000Y-79950000D03*
%TD*%
D17*
%TO.P,R3,1*%
%TO.N,Net-(D1-K)*%
X81500000Y-69000000D03*
%TO.P,R3,2*%
%TO.N,GND*%
X82520000Y-69000000D03*
%TD*%
%TO.P,R2,1*%
%TO.N,+3.3V*%
X90490000Y-62000000D03*
%TO.P,R2,2*%
%TO.N,Net-(J1-D-)*%
X91510000Y-62000000D03*
%TD*%
%TO.P,R1,1*%
%TO.N,Net-(SW1-B)*%
X98990000Y-56500000D03*
%TO.P,R1,2*%
%TO.N,Net-(U1-BOOT0)*%
X100010000Y-56500000D03*
%TD*%
D18*
%TO.P,J2,1,Pin_1*%
%TO.N,+3.3V*%
X116500000Y-61500000D03*
D19*
%TO.P,J2,2,Pin_2*%
%TO.N,Net-(J2-Pin_2)*%
X116500000Y-58960000D03*
%TO.P,J2,3,Pin_3*%
%TO.N,Net-(J2-Pin_3)*%
X116500000Y-56420000D03*
%TO.P,J2,4,Pin_4*%
%TO.N,GND*%
X116500000Y-53880000D03*
%TD*%
D20*
%TO.P,J1,1,VBUS*%
%TO.N,VBUS*%
X89400000Y-55750000D03*
%TO.P,J1,2,D-*%
%TO.N,Net-(J1-D-)*%
X90050000Y-55750000D03*
%TO.P,J1,3,D+*%
%TO.N,Net-(J1-D+)*%
X90700000Y-55750000D03*
%TO.P,J1,4,ID*%
%TO.N,unconnected-(J1-ID-Pad4)*%
X91350000Y-55750000D03*
%TO.P,J1,5,GND*%
%TO.N,GND*%
X92000000Y-55750000D03*
D21*
%TO.P,J1,6,Shield*%
%TO.N,unconnected-(J1-Shield-Pad6)*%
X87900000Y-55500000D03*
D22*
%TO.N,unconnected-(J1-Shield-Pad6)_2*%
X90700000Y-57650000D03*
D21*
%TO.N,unconnected-(J1-Shield-Pad6)_1*%
X93500000Y-55500000D03*
%TD*%
D23*
%TO.P,FB1,1*%
%TO.N,+3.3V*%
X93712500Y-64500000D03*
%TO.P,FB1,2*%
%TO.N,+3.3VA*%
X95287500Y-64500000D03*
%TD*%
D24*
%TO.P,D1,1,K*%
%TO.N,Net-(D1-K)*%
X87600000Y-68500000D03*
%TO.P,D1,2,A*%
%TO.N,+3.3V*%
X90400000Y-68500000D03*
%TD*%
D25*
%TO.P,C13,1*%
%TO.N,+3.3V*%
X73600000Y-75500000D03*
%TO.P,C13,2*%
%TO.N,GND*%
X75500000Y-75500000D03*
%TD*%
D26*
%TO.P,C12,1*%
%TO.N,VBUS*%
X75400000Y-71000000D03*
%TO.P,C12,2*%
%TO.N,GND*%
X73500000Y-71000000D03*
%TD*%
D25*
%TO.P,C11,1*%
%TO.N,Net-(U1-PD1)*%
X74100000Y-61000000D03*
%TO.P,C11,2*%
%TO.N,GND*%
X76000000Y-61000000D03*
%TD*%
%TO.P,C10,1*%
%TO.N,Net-(U1-PD0)*%
X80100000Y-58000000D03*
%TO.P,C10,2*%
%TO.N,GND*%
X82000000Y-58000000D03*
%TD*%
%TO.P,C9,1*%
%TO.N,Net-(U1-NRST)*%
X67600000Y-70000000D03*
%TO.P,C9,2*%
%TO.N,GND*%
X69500000Y-70000000D03*
%TD*%
%TO.P,C8,1*%
%TO.N,+3.3V*%
X67600000Y-66500000D03*
%TO.P,C8,2*%
%TO.N,GND*%
X69500000Y-66500000D03*
%TD*%
%TO.P,C7,1*%
%TO.N,+3.3VA*%
X67600000Y-63000000D03*
%TO.P,C7,2*%
%TO.N,GND*%
X69500000Y-63000000D03*
%TD*%
%TO.P,C6,1*%
%TO.N,+3.3VA*%
X67600000Y-59000000D03*
%TO.P,C6,2*%
%TO.N,GND*%
X69500000Y-59000000D03*
%TD*%
%TO.P,C5,1*%
%TO.N,+3.3V*%
X58330000Y-71110000D03*
%TO.P,C5,2*%
%TO.N,GND*%
X60230000Y-71110000D03*
%TD*%
%TO.P,C4,1*%
%TO.N,+3.3V*%
X58330000Y-65000000D03*
%TO.P,C4,2*%
%TO.N,GND*%
X60230000Y-65000000D03*
%TD*%
%TO.P,C3,1*%
%TO.N,+3.3V*%
X74100000Y-56500000D03*
%TO.P,C3,2*%
%TO.N,GND*%
X76000000Y-56500000D03*
%TD*%
%TO.P,C2,1*%
%TO.N,+3.3V*%
X73600000Y-80500000D03*
%TO.P,C2,2*%
%TO.N,GND*%
X75500000Y-80500000D03*
%TD*%
%TO.P,C1,1*%
%TO.N,+3.3V*%
X73600000Y-66000000D03*
%TO.P,C1,2*%
%TO.N,GND*%
X75500000Y-66000000D03*
%TD*%
D27*
%TO.N,VBUS*%
X88500000Y-64500000D03*
X86000000Y-65500000D03*
%TO.N,+3.3VA*%
X66000000Y-62500000D03*
%TO.N,Net-(U1-PD1)*%
X96500000Y-66500000D03*
X74500000Y-63500000D03*
%TO.N,Net-(J1-D+)*%
X91000000Y-52000000D03*
X110000000Y-65000000D03*
%TO.N,Net-(J1-D-)*%
X94500000Y-62000000D03*
X105000000Y-64412500D03*
%TO.N,+3.3V*%
X113000000Y-61500000D03*
X111500000Y-65000000D03*
%TO.N,Net-(U1-PD1)*%
X102000000Y-64000000D03*
X101000000Y-66500000D03*
%TO.N,+3.3VA*%
X97500000Y-68000000D03*
X97500000Y-63500000D03*
%TO.N,Net-(U1-PD0)*%
X91500000Y-66000000D03*
X93500000Y-68000000D03*
X95000000Y-70500000D03*
%TO.N,+3.3V*%
X90500000Y-72000000D03*
X90500000Y-74500000D03*
%TO.N,GND*%
X82500000Y-74500000D03*
X82520000Y-72480000D03*
%TO.N,VBUS*%
X78000000Y-72601000D03*
X81500000Y-81000000D03*
%TO.N,Net-(U1-NRST)*%
X72500000Y-73500000D03*
X71000000Y-72000000D03*
%TD*%
D28*
%TO.N,VBUS*%
X84000000Y-65500000D02*
X86000000Y-65500000D01*
X78000000Y-71500000D02*
X84000000Y-65500000D01*
X78000000Y-72601000D02*
X78000000Y-71500000D01*
%TO.N,+3.3VA*%
X67600000Y-60400000D02*
X67600000Y-59000000D01*
X66000000Y-62000000D02*
X67600000Y-60400000D01*
X66000000Y-62500000D02*
X66000000Y-62000000D01*
%TO.N,VBUS*%
X88500000Y-56650000D02*
X88500000Y-64500000D01*
X89400000Y-55750000D02*
X88500000Y-56650000D01*
%TO.N,GND*%
X88601000Y-51399000D02*
X82000000Y-58000000D01*
X91248943Y-51399000D02*
X88601000Y-51399000D01*
X92000000Y-52150057D02*
X91248943Y-51399000D01*
X92000000Y-55750000D02*
X92000000Y-52150057D01*
%TO.N,Net-(U1-PD1)*%
X98087500Y-64912500D02*
X99587500Y-64912500D01*
X96500000Y-66500000D02*
X98087500Y-64912500D01*
X74100000Y-63100000D02*
X74500000Y-63500000D01*
X74100000Y-61000000D02*
X74100000Y-63100000D01*
%TO.N,GND*%
X75500000Y-67000000D02*
X72500000Y-70000000D01*
X75500000Y-66000000D02*
X75500000Y-67000000D01*
X76000000Y-61500000D02*
X75500000Y-62000000D01*
X75500000Y-62000000D02*
X75500000Y-66000000D01*
X76000000Y-61000000D02*
X76000000Y-61500000D01*
X76000000Y-56500000D02*
X76000000Y-61000000D01*
X80500000Y-56500000D02*
X76000000Y-56500000D01*
X82000000Y-58000000D02*
X80500000Y-56500000D01*
%TO.N,Net-(J1-D+)*%
X90700000Y-52300000D02*
X90700000Y-55750000D01*
X91000000Y-52000000D02*
X90700000Y-52300000D01*
X108912500Y-63912500D02*
X110000000Y-65000000D01*
X107912500Y-63912500D02*
X108912500Y-63912500D01*
%TO.N,GND*%
X97622324Y-56351000D02*
X92601000Y-56351000D01*
X101500000Y-60228676D02*
X97622324Y-56351000D01*
X92601000Y-56351000D02*
X92000000Y-55750000D01*
X101500000Y-61000000D02*
X101500000Y-60228676D01*
%TO.N,Net-(J1-D-)*%
X94500000Y-62000000D02*
X91510000Y-62000000D01*
X105000000Y-64412500D02*
X104912500Y-64412500D01*
X107912500Y-64412500D02*
X105000000Y-64412500D01*
%TO.N,+3.3V*%
X113000000Y-61500000D02*
X108825000Y-61500000D01*
X111500000Y-66000000D02*
X111500000Y-65000000D01*
X108175000Y-69325000D02*
X111500000Y-66000000D01*
X106500000Y-69325000D02*
X108175000Y-69325000D01*
%TO.N,GND*%
X118052000Y-62848000D02*
X106000000Y-74900000D01*
X118052000Y-55432000D02*
X118052000Y-62848000D01*
X116500000Y-53880000D02*
X118052000Y-55432000D01*
%TO.N,Net-(U1-BOOT0)*%
X103000000Y-59490000D02*
X103000000Y-61000000D01*
X100010000Y-56500000D02*
X103000000Y-59490000D01*
%TO.N,Net-(J2-Pin_3)*%
X116500000Y-56420000D02*
X111920000Y-61000000D01*
X111920000Y-61000000D02*
X106500000Y-61000000D01*
%TO.N,Net-(J2-Pin_2)*%
X116889500Y-63412500D02*
X107912500Y-63412500D01*
X117651000Y-62651000D02*
X116889500Y-63412500D01*
X116500000Y-58960000D02*
X117651000Y-60111000D01*
X117651000Y-60111000D02*
X117651000Y-62651000D01*
%TO.N,+3.3V*%
X108825000Y-61500000D02*
X107912500Y-62412500D01*
X116500000Y-61500000D02*
X113000000Y-61500000D01*
%TO.N,GND*%
X103700000Y-77200000D02*
X101700000Y-77200000D01*
X101700000Y-77200000D02*
X99300000Y-74800000D01*
X106000000Y-74900000D02*
X106000000Y-69325000D01*
X103700000Y-77200000D02*
X106000000Y-74900000D01*
%TO.N,Net-(U1-PD1)*%
X100791724Y-64912500D02*
X99587500Y-64912500D01*
X101704224Y-64000000D02*
X100791724Y-64912500D01*
X102000000Y-64000000D02*
X101704224Y-64000000D01*
%TO.N,GND*%
X101500000Y-61771324D02*
X101500000Y-61000000D01*
X103994486Y-62994486D02*
X102723162Y-62994486D01*
X103994486Y-62994486D02*
X104076472Y-62912500D01*
X102723162Y-62994486D02*
X101500000Y-61771324D01*
%TO.N,Net-(U1-PD1)*%
X100407824Y-68363500D02*
X101000000Y-67771324D01*
X100407824Y-71507824D02*
X100407824Y-68363500D01*
X101000000Y-67771324D02*
X101000000Y-66500000D01*
X103700000Y-74800000D02*
X100407824Y-71507824D01*
%TO.N,GND*%
X104076472Y-62912500D02*
X107912500Y-62912500D01*
X102217648Y-64771324D02*
X103994486Y-62994486D01*
X102217648Y-64771324D02*
X101500000Y-64771324D01*
X106000000Y-69325000D02*
X106000000Y-68553676D01*
X106000000Y-68553676D02*
X102217648Y-64771324D01*
X100358824Y-65912500D02*
X101500000Y-64771324D01*
X99587500Y-65912500D02*
X100358824Y-65912500D01*
%TO.N,+3.3VA*%
X98816176Y-66412500D02*
X99587500Y-66412500D01*
X97500000Y-67728676D02*
X98816176Y-66412500D01*
X97500000Y-68000000D02*
X97500000Y-67728676D01*
X96287500Y-63500000D02*
X97500000Y-63500000D01*
X95287500Y-64500000D02*
X96287500Y-63500000D01*
%TO.N,+3.3V*%
X93712500Y-64500000D02*
X92990000Y-64500000D01*
X92990000Y-64500000D02*
X90490000Y-62000000D01*
X95800000Y-62412500D02*
X93712500Y-64500000D01*
X99587500Y-62412500D02*
X95800000Y-62412500D01*
X99587500Y-62412500D02*
X101000000Y-61000000D01*
%TO.N,Net-(J1-D-)*%
X90050000Y-56546504D02*
X90050000Y-55750000D01*
X89299000Y-57297504D02*
X90050000Y-56546504D01*
X89299000Y-59789000D02*
X89299000Y-57297504D01*
X91510000Y-62000000D02*
X89299000Y-59789000D01*
%TO.N,Net-(U1-PD0)*%
X88100000Y-66000000D02*
X80100000Y-58000000D01*
X91500000Y-66000000D02*
X88100000Y-66000000D01*
X97087500Y-64412500D02*
X99587500Y-64412500D01*
X93500000Y-68000000D02*
X97087500Y-64412500D01*
X95000000Y-72900000D02*
X95000000Y-70500000D01*
X99300000Y-77200000D02*
X95000000Y-72900000D01*
%TO.N,Net-(D1-K)*%
X82121000Y-68379000D02*
X81500000Y-69000000D01*
X87479000Y-68379000D02*
X82121000Y-68379000D01*
X87600000Y-68500000D02*
X87479000Y-68379000D01*
%TO.N,+3.3V*%
X90500000Y-72000000D02*
X90400000Y-71900000D01*
X90400000Y-71900000D02*
X90400000Y-68500000D01*
X89650000Y-75350000D02*
X90500000Y-74500000D01*
X89650000Y-78000000D02*
X89650000Y-75350000D01*
X83350000Y-78000000D02*
X89650000Y-78000000D01*
X93712500Y-65187500D02*
X90400000Y-68500000D01*
X93712500Y-64500000D02*
X93712500Y-65187500D01*
%TO.N,GND*%
X76500000Y-74500000D02*
X75500000Y-75500000D01*
X82500000Y-74500000D02*
X76500000Y-74500000D01*
X82500000Y-74500000D02*
X82500000Y-74850000D01*
X82500000Y-74850000D02*
X83350000Y-75700000D01*
X82520000Y-69000000D02*
X82520000Y-72480000D01*
%TO.N,VBUS*%
X77001000Y-72601000D02*
X75400000Y-71000000D01*
X78000000Y-72601000D02*
X77001000Y-72601000D01*
X82200000Y-80300000D02*
X81500000Y-81000000D01*
X83350000Y-80300000D02*
X82200000Y-80300000D01*
%TO.N,+3.3V*%
X79824000Y-81526000D02*
X83350000Y-78000000D01*
X74626000Y-81526000D02*
X79824000Y-81526000D01*
X73600000Y-80500000D02*
X74626000Y-81526000D01*
%TO.N,GND*%
X71974000Y-74474000D02*
X71000000Y-73500000D01*
X74474000Y-74474000D02*
X71974000Y-74474000D01*
X75500000Y-75500000D02*
X74474000Y-74474000D01*
X75500000Y-80500000D02*
X75500000Y-75500000D01*
%TO.N,+3.3V*%
X73600000Y-80500000D02*
X73600000Y-75500000D01*
X73050000Y-79950000D02*
X73600000Y-80500000D01*
X69945000Y-79950000D02*
X73050000Y-79950000D01*
X66895000Y-83000000D02*
X69945000Y-79950000D01*
X65500000Y-83000000D02*
X66895000Y-83000000D01*
X62450000Y-79950000D02*
X65500000Y-83000000D01*
X61055000Y-79950000D02*
X62450000Y-79950000D01*
X58330000Y-77225000D02*
X61055000Y-79950000D01*
X58330000Y-71110000D02*
X58330000Y-77225000D01*
%TO.N,Net-(U1-NRST)*%
X98816176Y-65412500D02*
X99587500Y-65412500D01*
X72500000Y-73500000D02*
X90728676Y-73500000D01*
X90728676Y-73500000D02*
X98816176Y-65412500D01*
X69600000Y-72000000D02*
X71000000Y-72000000D01*
X67600000Y-70000000D02*
X69600000Y-72000000D01*
%TO.N,+3.3V*%
X63600000Y-61488840D02*
X63600000Y-62500000D01*
X68588840Y-56500000D02*
X63600000Y-61488840D01*
X74100000Y-56500000D02*
X68588840Y-56500000D01*
X72500000Y-64900000D02*
X72500000Y-58100000D01*
X73600000Y-66000000D02*
X72500000Y-64900000D01*
X72500000Y-58100000D02*
X74100000Y-56500000D01*
X58330000Y-65000000D02*
X58330000Y-71110000D01*
X58500000Y-62500000D02*
X58330000Y-62670000D01*
X63600000Y-62500000D02*
X58500000Y-62500000D01*
X67600000Y-66500000D02*
X63600000Y-62500000D01*
X58330000Y-62670000D02*
X58330000Y-65000000D01*
%TO.N,+3.3VA*%
X67600000Y-59000000D02*
X67600000Y-63000000D01*
%TO.N,GND*%
X69500000Y-63000000D02*
X69500000Y-59000000D01*
X69500000Y-66500000D02*
X69500000Y-63000000D01*
X69500000Y-70000000D02*
X69500000Y-66500000D01*
X72500000Y-70000000D02*
X69500000Y-70000000D01*
X73500000Y-71000000D02*
X72500000Y-70000000D01*
X71000000Y-73500000D02*
X73500000Y-71000000D01*
X62500000Y-73500000D02*
X71000000Y-73500000D01*
X60230000Y-71230000D02*
X62500000Y-73500000D01*
X60230000Y-71110000D02*
X60230000Y-71230000D01*
X60230000Y-71110000D02*
X60230000Y-65000000D01*
%TD*%
M02*
